M48
; DRILL file KiCad 10.0.3 date 2026-07-30T18:20:46
; FORMAT={-:-/ absolute / metric / decimal}
; #@! TF.CreationDate,2026-07-30T18:20:46+02:00
; #@! TF.GenerationSoftware,Kicad,Pcbnew,10.0.3
; #@! TF.FileFunction,Plated,1,2,PTH
FMAT,2
METRIC
; #@! TA.AperFunction,Plated,PTH,ViaDrill
T1C0.300
; #@! TA.AperFunction,Plated,PTH,ViaDrill
T2C0.350
; #@! TA.AperFunction,Plated,PTH,ComponentDrill
T3C0.600
; #@! TA.AperFunction,Plated,PTH,ComponentDrill
T4C0.700
; #@! TA.AperFunction,Plated,PTH,ComponentDrill
T5C0.750
; #@! TA.AperFunction,Plated,PTH,ComponentDrill
T6C0.800
; #@! TA.AperFunction,Plated,PTH,ComponentDrill
T7C1.000
; #@! TA.AperFunction,Plated,PTH,ComponentDrill
T8C1.020
; #@! TA.AperFunction,Plated,PTH,ComponentDrill
T9C1.100
%
G90
G05
T1
X14.097Y-29.575
X19.14Y-33.361
X30.171Y-27.541
X30.528Y-29.997
X30.594Y-18.5
X34.363Y-33.238
X37.908Y-31.567
X54.567Y-39.18
X69.343Y-77.006
X75.252Y-62.674
X92.983Y-18.812
X101.548Y-13.92
X101.847Y-4.264
T2
X50.6Y-30.0
T3
X29.277Y-51.0
X30.777Y-51.0
X40.277Y-27.0
X40.277Y-34.0
X41.777Y-27.0
X41.777Y-34.0
X44.277Y-51.0
X45.777Y-19.5
X45.777Y-40.5
X45.777Y-51.0
X47.277Y-19.5
X47.277Y-40.5
X54.277Y-23.0
X55.777Y-23.0
X59.277Y-51.0
X60.777Y-51.0
T4
X15.095Y-27.0
X15.095Y-33.0
X16.995Y-27.0
X16.995Y-33.0
X25.095Y-17.5
X25.095Y-21.0
X25.095Y-39.0
X25.095Y-42.5
X26.995Y-17.5
X26.995Y-21.0
X26.995Y-39.0
X26.995Y-42.5
X29.095Y-14.0
X29.095Y-68.0
X29.095Y-71.5
X30.995Y-14.0
X30.995Y-68.0
X30.995Y-71.5
X33.095Y-17.5
X33.095Y-21.0
X33.095Y-39.0
X33.095Y-42.5
X34.995Y-17.5
X34.995Y-21.0
X34.995Y-39.0
X34.995Y-42.5
X37.095Y-61.0
X38.995Y-61.0
X44.095Y-68.0
X44.095Y-71.5
X45.595Y-15.0
X45.595Y-23.5
X45.595Y-36.5
X45.595Y-45.0
X45.995Y-68.0
X45.995Y-71.5
X47.495Y-15.0
X47.495Y-23.5
X47.495Y-36.5
X47.495Y-45.0
X52.095Y-61.0
X53.995Y-61.0
X54.095Y-37.0
X55.995Y-37.0
X57.0Y-45.095
X57.0Y-46.995
X59.095Y-68.0
X59.095Y-71.5
X60.995Y-68.0
X60.995Y-71.5
X65.095Y-22.0
X65.095Y-35.0
X66.995Y-22.0
X66.995Y-35.0
X67.095Y-61.0
X68.995Y-61.0
X103.095Y-50.0
X104.995Y-50.0
X112.095Y-78.0
X113.995Y-78.0
T5
X102.73Y-62.36
X102.73Y-70.36
X102.73Y-78.36
X104.0Y-62.36
X104.0Y-70.36
X104.0Y-78.36
X105.27Y-62.36
X105.27Y-70.36
X105.27Y-78.36
X111.73Y-62.36
X111.73Y-70.36
X113.0Y-62.36
X113.0Y-70.36
X114.27Y-62.36
X114.27Y-70.36
T6
X26.195Y-56.19
X26.195Y-58.73
X26.195Y-61.27
X26.195Y-63.81
X33.815Y-56.19
X33.815Y-58.73
X33.815Y-61.27
X33.815Y-63.81
X41.195Y-56.19
X41.195Y-58.73
X41.195Y-61.27
X41.195Y-63.81
X48.815Y-56.19
X48.815Y-58.73
X48.815Y-61.27
X48.815Y-63.81
X56.195Y-56.19
X56.195Y-58.73
X56.195Y-61.27
X56.195Y-63.81
X63.815Y-56.19
X63.815Y-58.73
X63.815Y-61.27
X63.815Y-63.81
T7
X6.0Y-8.19
X6.0Y-10.73
X6.0Y-13.27
X6.0Y-15.81
X6.0Y-75.725
X6.0Y-78.265
X30.0Y-80.725
X30.0Y-83.265
X45.0Y-80.725
X45.0Y-83.265
X60.0Y-80.725
X60.0Y-83.265
T8
X74.04Y-7.33
X74.04Y-9.87
X74.04Y-12.41
X74.04Y-14.95
X74.04Y-17.49
X74.04Y-20.03
X74.04Y-22.57
X74.04Y-25.11
X74.04Y-27.65
X74.04Y-30.19
X74.04Y-32.73
X74.04Y-35.27
X74.04Y-37.81
X74.04Y-40.35
X74.04Y-42.89
X74.04Y-45.43
X74.04Y-47.97
X74.04Y-50.51
X74.04Y-53.05
X74.04Y-55.59
X74.04Y-58.13
X74.04Y-60.67
X96.9Y-7.33
X96.9Y-9.87
X96.9Y-12.41
X96.9Y-14.95
X96.9Y-17.49
X96.9Y-20.03
X96.9Y-22.57
X96.9Y-25.11
X96.9Y-27.65
X96.9Y-30.19
X96.9Y-32.73
X96.9Y-35.27
X96.9Y-37.81
X96.9Y-40.35
X96.9Y-42.89
X96.9Y-45.43
X96.9Y-47.97
X96.9Y-50.51
X96.9Y-53.05
X96.9Y-55.59
X96.9Y-58.13
X96.9Y-60.67
T9
X13.92Y-77.0
X24.08Y-77.0
M30
