%TF.GenerationSoftware,KiCad,Pcbnew,10.0.3*%
%TF.CreationDate,2026-07-30T18:20:36+02:00*%
%TF.ProjectId,Laser Controller,4c617365-7220-4436-9f6e-74726f6c6c65,rev?*%
%TF.SameCoordinates,Original*%
%TF.FileFunction,Soldermask,Top*%
%TF.FilePolarity,Negative*%
%FSLAX46Y46*%
G04 Gerber Fmt 4.6, Leading zero omitted, Abs format (unit mm)*
G04 Created by KiCad (PCBNEW 10.0.3) date 2026-07-30 18:20:36*
%MOMM*%
%LPD*%
G01*
G04 APERTURE LIST*
G04 Aperture macros list*
%AMRoundRect*
0 Rectangle with rounded corners*
0 $1 Rounding radius*
0 $2 $3 $4 $5 $6 $7 $8 $9 X,Y pos of 4 corners*
0 Add a 4 corners polygon primitive as box body*
4,1,4,$2,$3,$4,$5,$6,$7,$8,$9,$2,$3,0*
0 Add four circle primitives for the rounded corners*
1,1,$1+$1,$2,$3*
1,1,$1+$1,$4,$5*
1,1,$1+$1,$6,$7*
1,1,$1+$1,$8,$9*
0 Add four rect primitives between the rounded corners*
20,1,$1+$1,$2,$3,$4,$5,0*
20,1,$1+$1,$4,$5,$6,$7,0*
20,1,$1+$1,$6,$7,$8,$9,0*
20,1,$1+$1,$8,$9,$2,$3,0*%
G04 Aperture macros list end*
%ADD10RoundRect,0.150000X-0.150000X-0.700000X0.150000X-0.700000X0.150000X0.700000X-0.150000X0.700000X0*%
%ADD11RoundRect,0.150000X-0.150000X-0.800000X0.150000X-0.800000X0.150000X0.800000X-0.150000X0.800000X0*%
%ADD12R,1.700000X1.700000*%
%ADD13C,1.700000*%
%ADD14C,1.400000*%
%ADD15RoundRect,0.102000X-0.765000X-0.765000X0.765000X-0.765000X0.765000X0.765000X-0.765000X0.765000X0*%
%ADD16C,1.734000*%
%ADD17RoundRect,0.250000X-0.350000X-0.350000X0.350000X-0.350000X0.350000X0.350000X-0.350000X0.350000X0*%
%ADD18C,1.200000*%
%ADD19RoundRect,0.250000X-0.550000X-0.550000X0.550000X-0.550000X0.550000X0.550000X-0.550000X0.550000X0*%
%ADD20C,1.600000*%
%ADD21R,1.574800X0.279400*%
%ADD22R,1.050000X1.500000*%
%ADD23O,1.050000X1.500000*%
%ADD24R,1.981200X0.558800*%
%ADD25RoundRect,0.249999X-0.850001X-0.850001X0.850001X-0.850001X0.850001X0.850001X-0.850001X0.850001X0*%
%ADD26C,2.200000*%
%TA.AperFunction,Profile*%
%ADD27C,0.150000*%
%TD*%
G04 APERTURE END LIST*
D10*
%TO.C,U13*%
X5500000Y-31850000D03*
D11*
X6500000Y-28250000D03*
D10*
X7500000Y-31850000D03*
D11*
X8500000Y-28250000D03*
%TD*%
D12*
%TO.C,U5*%
X45000000Y-80725000D03*
D13*
X45000000Y-83265000D03*
%TD*%
D14*
%TO.C,R5*%
X112095000Y-78000000D03*
X113995000Y-78000000D03*
%TD*%
D15*
%TO.C,U1*%
X74040500Y-7330000D03*
D16*
X74040500Y-9870000D03*
X74040500Y-12410000D03*
X74040500Y-14950000D03*
X74040500Y-17490000D03*
X74040500Y-20030000D03*
X74040500Y-22570000D03*
X74040500Y-25110000D03*
X74040500Y-27650000D03*
X74040500Y-30190000D03*
X74040500Y-32730000D03*
X74040500Y-35270000D03*
X74040500Y-37810000D03*
X74040500Y-40350000D03*
X74040500Y-42890000D03*
X74040500Y-45430000D03*
X74040500Y-47970000D03*
X74040500Y-50510000D03*
X74040500Y-53050000D03*
X74040500Y-55590000D03*
X74040500Y-58130000D03*
X74040500Y-60670000D03*
X96900500Y-7330000D03*
X96900500Y-9870000D03*
X96900500Y-12410000D03*
X96900500Y-14950000D03*
X96900500Y-17490000D03*
X96900500Y-20030000D03*
X96900500Y-22570000D03*
X96900500Y-25110000D03*
X96900500Y-27650000D03*
X96900500Y-30190000D03*
X96900500Y-32730000D03*
X96900500Y-35270000D03*
X96900500Y-37810000D03*
X96900500Y-40350000D03*
X96900500Y-42890000D03*
X96900500Y-45430000D03*
X96900500Y-47970000D03*
X96900500Y-50510000D03*
X96900500Y-53050000D03*
X96900500Y-55590000D03*
X96900500Y-58130000D03*
X96900500Y-60670000D03*
%TD*%
D14*
%TO.C,R29*%
X103095000Y-50000000D03*
X104995000Y-50000000D03*
%TD*%
%TO.C,R10*%
X29095000Y-14000000D03*
X30995000Y-14000000D03*
%TD*%
%TO.C,R3*%
X54095000Y-37000000D03*
X55995000Y-37000000D03*
%TD*%
%TO.C,R21*%
X44095000Y-71500000D03*
X45995000Y-71500000D03*
%TD*%
%TO.C,R8*%
X33095000Y-21000000D03*
X34995000Y-21000000D03*
%TD*%
%TO.C,X_Knoten1*%
X45595000Y-23500000D03*
X47495000Y-23500000D03*
%TD*%
D17*
%TO.C,C6*%
X44277400Y-51000000D03*
D18*
X45777400Y-51000000D03*
%TD*%
D17*
%TO.C,C1*%
X54277400Y-23000000D03*
D18*
X55777400Y-23000000D03*
%TD*%
D19*
%TO.C,U17*%
X56195000Y-56190000D03*
D20*
X56195000Y-58730000D03*
X56195000Y-61270000D03*
X56195000Y-63810000D03*
X63815000Y-63810000D03*
X63815000Y-61270000D03*
X63815000Y-58730000D03*
X63815000Y-56190000D03*
%TD*%
D17*
%TO.C,C7*%
X59277400Y-51000000D03*
D18*
X60777400Y-51000000D03*
%TD*%
D17*
%TO.C,C8*%
X40277400Y-34000000D03*
D18*
X41777400Y-34000000D03*
%TD*%
D21*
%TO.C,U2*%
X52815600Y-28999999D03*
X52815600Y-29500001D03*
X52815600Y-30000000D03*
X52815600Y-30499999D03*
X52815600Y-31000001D03*
X57006600Y-31000001D03*
X57006600Y-30499999D03*
X57006600Y-30000000D03*
X57006600Y-29500001D03*
X57006600Y-28999999D03*
%TD*%
D19*
%TO.C,U16*%
X41195000Y-56190000D03*
D20*
X41195000Y-58730000D03*
X41195000Y-61270000D03*
X41195000Y-63810000D03*
X48815000Y-63810000D03*
X48815000Y-61270000D03*
X48815000Y-58730000D03*
X48815000Y-56190000D03*
%TD*%
D14*
%TO.C,R11*%
X45595000Y-15000000D03*
X47495000Y-15000000D03*
%TD*%
%TO.C,R20*%
X44095000Y-68000000D03*
X45995000Y-68000000D03*
%TD*%
D22*
%TO.C,U10*%
X111730000Y-70360000D03*
D23*
X113000000Y-70360000D03*
X114270000Y-70360000D03*
%TD*%
D14*
%TO.C,R14*%
X25095000Y-42500000D03*
X26995000Y-42500000D03*
%TD*%
%TO.C,Y_Knoten1*%
X45595000Y-36500000D03*
X47495000Y-36500000D03*
%TD*%
D17*
%TO.C,C3*%
X45777400Y-19500000D03*
D18*
X47277400Y-19500000D03*
%TD*%
D14*
%TO.C,R27*%
X65095000Y-22000000D03*
X66995000Y-22000000D03*
%TD*%
%TO.C,R22*%
X59095000Y-68000000D03*
X60995000Y-68000000D03*
%TD*%
D17*
%TO.C,C4*%
X45777400Y-40500000D03*
D18*
X47277400Y-40500000D03*
%TD*%
D22*
%TO.C,U9*%
X111730000Y-62360000D03*
D23*
X113000000Y-62360000D03*
X114270000Y-62360000D03*
%TD*%
D14*
%TO.C,R9*%
X33095000Y-17500000D03*
X34995000Y-17500000D03*
%TD*%
%TO.C,R4*%
X67095000Y-61000000D03*
X68995000Y-61000000D03*
%TD*%
D17*
%TO.C,C2*%
X40277400Y-27000000D03*
D18*
X41777400Y-27000000D03*
%TD*%
D17*
%TO.C,C5*%
X29277400Y-51000000D03*
D18*
X30777400Y-51000000D03*
%TD*%
D14*
%TO.C,R17*%
X25095000Y-39000000D03*
X26995000Y-39000000D03*
%TD*%
D22*
%TO.C,U8*%
X102730000Y-78360000D03*
D23*
X104000000Y-78360000D03*
X105270000Y-78360000D03*
%TD*%
D14*
%TO.C,R12*%
X25095000Y-21000000D03*
X26995000Y-21000000D03*
%TD*%
D24*
%TO.C,U12*%
X27447300Y-26190000D03*
X27447300Y-27460000D03*
X27447300Y-28730000D03*
X27447300Y-30000000D03*
X27447300Y-31270000D03*
X27447300Y-32540000D03*
X27447300Y-33810000D03*
X32374900Y-33810000D03*
X32374900Y-32540000D03*
X32374900Y-31270000D03*
X32374900Y-30000000D03*
X32374900Y-28730000D03*
X32374900Y-27460000D03*
X32374900Y-26190000D03*
%TD*%
D14*
%TO.C,R16*%
X15095000Y-33000000D03*
X16995000Y-33000000D03*
%TD*%
D22*
%TO.C,U7*%
X102730000Y-70360000D03*
D23*
X104000000Y-70360000D03*
X105270000Y-70360000D03*
%TD*%
D14*
%TO.C,R28*%
X65095000Y-35000000D03*
X66995000Y-35000000D03*
%TD*%
D12*
%TO.C,J2*%
X6000000Y-75725000D03*
D13*
X6000000Y-78265000D03*
%TD*%
D14*
%TO.C,R6*%
X15095000Y-27000000D03*
X16995000Y-27000000D03*
%TD*%
%TO.C,R19*%
X29095000Y-71500000D03*
X30995000Y-71500000D03*
%TD*%
D22*
%TO.C,U6*%
X102730000Y-62360000D03*
D23*
X104000000Y-62360000D03*
X105270000Y-62360000D03*
%TD*%
D12*
%TO.C,U4*%
X30000000Y-80725000D03*
D13*
X30000000Y-83265000D03*
%TD*%
D14*
%TO.C,R23*%
X59095000Y-71500000D03*
X60995000Y-71500000D03*
%TD*%
%TO.C,R13*%
X45595000Y-45000000D03*
X47495000Y-45000000D03*
%TD*%
D19*
%TO.C,U15*%
X26195000Y-56190000D03*
D20*
X26195000Y-58730000D03*
X26195000Y-61270000D03*
X26195000Y-63810000D03*
X33815000Y-63810000D03*
X33815000Y-61270000D03*
X33815000Y-58730000D03*
X33815000Y-56190000D03*
%TD*%
D14*
%TO.C,R25*%
X33095000Y-39000000D03*
X34995000Y-39000000D03*
%TD*%
%TO.C,R15*%
X33095000Y-42500000D03*
X34995000Y-42500000D03*
%TD*%
%TO.C,R7*%
X25095000Y-17500000D03*
X26995000Y-17500000D03*
%TD*%
D12*
%TO.C,J3*%
X6000000Y-8190000D03*
D13*
X6000000Y-10730000D03*
X6000000Y-13270000D03*
X6000000Y-15810000D03*
%TD*%
D25*
%TO.C,D1*%
X13920000Y-77000000D03*
D26*
X24080000Y-77000000D03*
%TD*%
D14*
%TO.C,R18*%
X29095000Y-68000000D03*
X30995000Y-68000000D03*
%TD*%
%TO.C,R1*%
X37095000Y-61000000D03*
X38995000Y-61000000D03*
%TD*%
%TO.C,R26*%
X57000000Y-45095000D03*
X57000000Y-46995000D03*
%TD*%
D12*
%TO.C,U3*%
X60000000Y-80725000D03*
D13*
X60000000Y-83265000D03*
%TD*%
D14*
%TO.C,R2*%
X52095000Y-61000000D03*
X53995000Y-61000000D03*
%TD*%
D27*
X0Y0D02*
X118000000Y0D01*
X0Y-90000000D02*
X0Y0D01*
X118000000Y0D02*
X118000000Y-90000000D01*
X118000000Y-90000000D02*
X0Y-90000000D01*
M02*
