<svg xmlns="http://www.w3.org/2000/svg" viewBox="0 0 500 500" width="100%" height="100%">
  <circle cx="250" cy="250" r="230" fill="#12161a" stroke="#1f262e" stroke-width="4"/>
  
  <defs>
    <filter id="glow-r" x="-20%" y="-20%" width="140%" height="140%">
      <feGaussianBlur stdDeviation="6" result="blur" />
      <feComposite in="SourceGraphic" in2="blur" operator="over"/>
    </filter>
    <filter id="glow-g" x="-20%" y="-20%" width="140%" height="140%">
      <feGaussianBlur stdDeviation="6" result="blur" />
      <feComposite in="SourceGraphic" in2="blur" operator="over"/>
    </filter>
    <filter id="glow-b" x="-20%" y="-20%" width="140%" height="140%">
      <feGaussianBlur stdDeviation="6" result="blur" />
      <feComposite in="SourceGraphic" in2="blur" operator="over"/>
    </filter>
  </defs>

  <path d="M 370 200 A 140 140 0 1 0 370 300 L 330 300 A 100 100 0 1 1 330 200" fill="none" stroke="#00e5ff" stroke-width="8" stroke-linecap="round" filter="url(#glow-b)"/>
  
  <path d="M 350 220 A 110 110 0 1 0 350 280 L 250 280" fill="none" stroke="#00ff66" stroke-width="6" stroke-linecap="round" filter="url(#glow-g)"/>

  <path d="M 70 250 L 160 250 L 175 210 L 190 290 L 205 230 L 220 270 L 235 150 L 250 350 L 265 220 L 280 250 L 430 250" fill="none" stroke="#ff2a4b" stroke-width="7" stroke-linecap="round" stroke-linejoin="round" filter="url(#glow-r)"/>

  <path d="M 250 250 L 360 250" fill="none" stroke="#00e5ff" stroke-width="8" stroke-linecap="round" filter="url(#glow-b)"/>
</svg>
